<?xml version="1.0" encoding="utf-8"?>
<svg viewBox="-6.985 0 500 500" xmlns="http://www.w3.org/2000/svg" xmlns:bx="https://boxy-svg.com">
  <circle style="fill: rgb(58, 84, 255);" cx="178.464" cy="186.531" r="29.839" transform="matrix(10.145659, 0, 0, 5.742924, -1521.986084, -887.532104)"/>
  <path d="M 49.306 141.04 C 45.558 137.32 44.151 134.537 44.537 130.506 C 45.764 118.461 77.457 109.9 110.865 109.9 C 139.163 109.9 156.096 116.198 166.064 123.897 L 283.188 242.82 L 424.546 123.897 C 436.047 116.198 454.246 109.9 482.588 109.9 C 515.903 109.9 545.82 118.461 544.625 130.506 C 544.283 134.537 542.378 137.32 537.766 141.04 L 339.083 300.256 C 327.269 309.43 312.387 316.791 275.7 316.791 C 239.032 316.791 225.648 309.43 215.715 300.256 L 49.306 141.04 Z" style="fill-rule: nonzero; paint-order: stroke markers; fill: rgb(255, 255, 255);" transform="matrix(0.999163, -0.040911, 0.040911, 0.999163, -12.97451, 13.222355)" bx:origin="0.544 1.033"/>
</svg>